<?xml version="1.0" encoding="UTF-8" standalone="no"?>
<svg
   height="400"
   width="400"
   xml:space="preserve"
   y="0"
   x="0"
   id="Layer_1"
   version="1.1"
   viewBox="-57.15 -21.25 165.1 63.749997"
   sodipodi:docname="yt_logo_mono_dark.svg"
   inkscape:version="1.4 (e7c3feb100, 2024-10-09)"
   xmlns:inkscape="http://www.inkscape.org/namespaces/inkscape"
   xmlns:sodipodi="http://sodipodi.sourceforge.net/DTD/sodipodi-0.dtd"
   xmlns="http://www.w3.org/2000/svg"
   xmlns:svg="http://www.w3.org/2000/svg"><sodipodi:namedview
     id="ytlogo"
     pagecolor="#505050"
     bordercolor="#eeeeee"
     borderopacity="1"
     inkscape:showpageshadow="0"
     inkscape:pageopacity="0"
     inkscape:pagecheckerboard="0"
     inkscape:deskcolor="#505050"
     inkscape:zoom="0.62833333"
     inkscape:cx="600"
     inkscape:cy="399.4695"
     inkscape:window-width="1536"
     inkscape:window-height="836"
     inkscape:window-x="0"
     inkscape:window-y="0"
     inkscape:window-maximized="1"
     inkscape:current-layer="Layer_1" /><defs
     id="yt" /><g
     id="o1"
     transform="matrix(1.3599602,0,0,1.3599602,-57.149663,-47.159523)"><path
       id="logo"
       d="m 60.699799,-3.515625e-4 c 0,0 -38.000109,6.8457031e-4 -47.500109,2.5006845625 -5.0999996,1.4 -9.3000596,5.600023 -10.7000596,10.800023 C -3.6962891e-4,22.800356 -2.4804688e-4,42.5 -2.4804688e-4,42.5 c 0,0 -1.2158203e-4,19.799644 2.49987844688,29.199644 1.4,5.2 5.50006,9.30006 10.7000596,10.70006 9.6,2.6 47.500109,2.600648 47.500109,2.600648 0,0 38.000108,-6.85e-4 47.500111,-2.500685 5.2,-1.4 9.30006,-5.50006 10.70006,-10.70006 2.5,-9.5 2.49988,-29.199644 2.49988,-29.199644 0,0 0.10012,-19.799607 -2.49988,-29.299607 -1.4,-5.2 -5.50006,-9.3000601 -10.70006,-10.7000601 C 98.699907,2.9589844e-4 60.699799,-3.515625e-4 60.699799,-3.515625e-4 Z M 48.600258,24.300305 80.199818,42.5 48.600258,60.699695 Z" /></g></svg>
